<svg version="1.1" id="Capa_1" xmlns="http://www.w3.org/2000/svg" xmlns:xlink="http://www.w3.org/1999/xlink" x="0px" y="0px" width="232px" height="206.145px" viewBox="0 0 232 206.145" enable-background="new 0 0 232 206.145" xml:space="preserve">
  <rect x="28" y="22.817" fill="#67DDDF" width="135" height="72"/>
  <g>
    <rect x="92" y="22.817" fill="#F78D13" stroke="#757776" stroke-width="6" stroke-miterlimit="10" width="67" height="16"/>
    <line fill="none" stroke="#757776" stroke-width="6.5571" stroke-miterlimit="10" x1="159.297" y1="26.021" x2="208.475" y2="75.199"/>
    <line fill="none" stroke="#757776" stroke-width="6.5571" stroke-miterlimit="10" x1="208.475" y1="65.773" x2="187.574" y2="138.721"/>
    <circle fill="#606060" stroke="#F9A326" stroke-width="8.1963" stroke-miterlimit="10" cx="205.401" cy="70.486" r="10.327"/>
    <rect x="154" y="132.817" fill="#67DDDF" width="52" height="13"/>
  </g>
  <g>
    <rect x="17.5" y="148.317" fill="none" stroke="#757776" stroke-width="5" stroke-miterlimit="10" width="196" height="13"/>
    <line fill="none" stroke="#757776" stroke-width="5" stroke-miterlimit="10" x1="30.5" y1="192.817" x2="30.5" y2="161.817"/>
    <line fill="none" stroke="#757776" stroke-width="5" stroke-miterlimit="10" x1="43.5" y1="192.817" x2="43.5" y2="161.817"/>
    <line fill="none" stroke="#757776" stroke-width="5" stroke-miterlimit="10" x1="189.5" y1="192.817" x2="189.5" y2="161.817"/>
    <line fill="none" stroke="#757776" stroke-width="5" stroke-miterlimit="10" x1="202.5" y1="192.817" x2="202.5" y2="161.817"/>
    <path fill="none" stroke="#757776" stroke-width="5" stroke-miterlimit="10" d="M170.611 20.387c0 0-2.299-7.07-8.036-7.07s-136.059 0-136.059 0S19.5 14.956 19.5 22.333s0 90.16 0 90.16 1.279 8.824 6.196 8.824 136.879 0 136.879 0 9.925-1.447 9.925-10.873 0-59.627 0-59.627"/>
    <line fill="none" stroke="#757776" stroke-width="4.9178" stroke-miterlimit="10" x1="76.104" y1="147.737" x2="78.153" y2="121.508"/>
    <line fill="none" stroke="#757776" stroke-width="4.9178" stroke-miterlimit="10" x1="114.217" y1="147.737" x2="112.168" y2="121.508"/>
    <line fill="none" stroke="#757776" stroke-width="5" stroke-miterlimit="10" x1="18" y1="101.317" x2="172" y2="101.317"/>
  </g>
  <g>
    <rect x="73" y="81.817" fill="#666666" width="5" height="6"/>
    <rect x="87" y="81.817" fill="#666666" width="5" height="6"/>
    <rect x="100" y="81.817" fill="#666666" width="5" height="6"/>
    <rect x="113" y="81.817" fill="#666666" width="5" height="6"/>
  </g>
</svg>
