<svg version="1.1" id="Capa_1" xmlns="http://www.w3.org/2000/svg" xmlns:xlink="http://www.w3.org/1999/xlink" x="0px" y="0px" width="314.333px" height="284.515px" viewBox="0 0 314.333 284.515" enable-background="new 0 0 314.333 284.515" xml:space="preserve">
  <rect y="-0.216" fill="none" width="314" height="284"/>
  <circle fill="#73E9E4" cx="157.417" cy="142.257" r="111.784"/>
  <rect x="82" y="137.784" fill="#5E6364" width="7" height="9"/>
  <rect x="98" y="137.784" fill="#5E6364" width="7" height="9"/>
  <rect x="114" y="137.784" fill="#5E6364" width="7" height="9"/>
  <rect x="194" y="137.784" fill="#5E6364" width="7" height="9"/>
  <rect x="209" y="137.784" fill="#5E6364" width="7" height="9"/>
  <rect x="225" y="137.784" fill="#5E6364" width="7" height="9"/>
  <path fill="none" stroke="#5E6364" stroke-width="8" stroke-linecap="round" stroke-linejoin="round" stroke-miterlimit="10" d="M47.051 146.345c0 0 0-58.613 53.909-58.613s57.527 50.291 57.527 55.718c0 5.427 4.088 54.868 54.868 54.868s52.878-56.026 54.452-54.452"/>
  <line fill="none" stroke="#5E6364" stroke-width="8" stroke-linecap="square" stroke-linejoin="round" stroke-miterlimit="10" x1="37" y1="87.784" x2="167" y2="87.784"/>
  <rect x="37.5" y="133.284" fill="#FFFFFF" stroke="#5E6364" stroke-width="5" stroke-miterlimit="10" width="18" height="19"/>
  <rect x="93.5" y="77.284" fill="#FFFFFF" stroke="#5E6364" stroke-width="5" stroke-miterlimit="10" width="18" height="19"/>
  <rect x="148.5" y="132.284" fill="#FFFFFF" stroke="#5E6364" stroke-width="5" stroke-miterlimit="10" width="18" height="19"/>
  <rect x="204.5" y="188.284" fill="#FFFFFF" stroke="#5E6364" stroke-width="5" stroke-miterlimit="10" width="18" height="19"/>
  <rect x="259.5" y="133.284" fill="#FFFFFF" stroke="#5E6364" stroke-width="5" stroke-miterlimit="10" width="18" height="19"/>
  <path fill="#FFFFFF" stroke="#5E6364" stroke-width="5" stroke-linecap="round" stroke-linejoin="round" stroke-miterlimit="10" d="M95.172 187.953l24.241 61.145 6.151-30.754c0 0 27.136-7.96 28.221-7.96C154.87 210.385 95.172 187.953 95.172 187.953z"/>
</svg>