<svg version="1.1" id="Capa_1" xmlns="http://www.w3.org/2000/svg" xmlns:xlink="http://www.w3.org/1999/xlink" x="0px" y="0px" width="241px" height="229.5px" viewBox="0 0 241 229.5" enable-background="new 0 0 241 229.5" xml:space="preserve">
  <g>
    <rect x="25" y="52.5" fill="#BBE2E3" width="198" height="140"/>
    <polyline fill="none" stroke="#5E6364" stroke-width="3" stroke-miterlimit="10" points="87 53 25.5 53 25.5 192 87 192 "/>
    <polyline fill="none" stroke="#5E6364" stroke-width="3" stroke-miterlimit="10" points="150 53 223.5 53 223.5 192 150 192 "/>
  </g>
  <rect x="20" y="39.5" fill="#FFFFFF" width="198" height="139"/>
  <g>
    <rect x="30" y="86.5" fill="#76E1E4" width="59" height="43"/>
    <rect x="29" y="59.5" fill="#616264" width="60" height="10"/>
    <rect x="44" y="49.5" fill="#616264" width="45" height="5"/>
    <rect x="30" y="136.5" fill="#616264" width="57" height="5"/>
    <rect x="30" y="150.5" fill="#616264" width="47" height="5"/>
    <polyline fill="none" stroke="#5E6364" stroke-width="3" stroke-miterlimit="10" points="87 41 18.5 41 18.5 180 87 180 "/>
  </g>
  <g>
    <rect x="149.5" y="49" fill="none" stroke="#616264" stroke-width="3" stroke-miterlimit="10" width="62" height="54"/>
    <rect x="150" y="108.5" fill="#616264" width="62" height="5"/>
    <rect x="161" y="136.5" fill="#616264" width="52" height="5"/>
    <rect x="148" y="148.5" fill="#616264" width="65" height="7"/>
    <polyline fill="none" stroke="#5E6364" stroke-width="3" stroke-miterlimit="10" points="150 41 218.5 41 218.5 180 150 180 "/>
  </g>
  <polygon fill="#F69C1D" points="179.719 39.5 198 39.5 198 133.293 188.859 125.464 180.375 134.071 "/>
  <g>
    <polygon fill="#FCF1E5" points="137.863 178.5 118.064 212.793 98.265 178.5 "/>
    <path fill="#BBE2E3" d="M99 37.5h38.777l-0.081-16.672c0 0-1.806-6.328-7.468-6.328 -5.662 0-24.326 0-24.326 0S99 15.646 99 21.308 99 37.5 99 37.5z"/>
    <rect x="101" y="39.5" fill="#FFC16B" width="10" height="139"/>
    <rect x="113" y="39.5" fill="#FFC16B" width="13" height="139"/>
    <rect x="124" y="39.5" fill="#FFC16B" width="12" height="139"/>
    <path fill="none" stroke="#5E6364" stroke-width="3" stroke-miterlimit="10" d="M118.22 215.5L99.5 177.752V22.566c0 0-0.31-9.566 9.477-9.566s20.412 0 20.412 0 8.112 3.415 8.112 8.448 0 157.143 0 157.143L118.22 215.5z"/>
    <line fill="none" stroke="#5E6364" stroke-width="3" stroke-miterlimit="10" x1="112.5" y1="39.5" x2="112.5" y2="178.5"/>
    <line fill="none" stroke="#5E6364" stroke-width="3" stroke-miterlimit="10" x1="126.5" y1="39.5" x2="126.5" y2="178.5"/>
    <polygon fill="#5E6364" points="123.289 203.5 118.064 212.549 112.839 203.5 "/>
    <rect x="99" y="34.5" fill="#5E6364" width="39" height="5"/>
  </g>
</svg>
